{
    "asset" : {
        "generator" : "Khronos glTF Blender I/O v3.4.49",
        "version" : "2.0"
    },
    "extensionsUsed" : [
        "KHR_materials_specular",
        "KHR_materials_ior"
    ],
    "scene" : 0,
    "scenes" : [
        {
            "name" : "Scene",
            "nodes" : [
                0,
                1,
                2,
                3,
                4,
                5
            ]
        }
    ],
    "nodes" : [
        {
            "mesh" : 0,
            "name" : "New Object",
            "rotation" : [
                0,
                -1,
                0,
                1.6292068494294654e-07
            ],
            "translation" : [
                0,
                0,
                2.2744290828704834
            ]
        },
        {
            "mesh" : 1,
            "name" : "Cylinder",
            "rotation" : [
                -0.717432975769043,
                0,
                0,
                0.6966275572776794
            ],
            "scale" : [
                0.09554348886013031,
                0.014632043428719044,
                0.09554348886013031
            ],
            "translation" : [
                0,
                0.9725536704063416,
                -0.7923451662063599
            ]
        },
        {
            "name" : "BezierCurve"
        },
        {
            "mesh" : 2,
            "name" : "Plane.001",
            "rotation" : [
                -0.7071068286895752,
                0,
                0,
                0.7071068286895752
            ],
            "scale" : [
                0.14758352935314178,
                0.14758352935314178,
                0.14758352935314178
            ],
            "translation" : [
                -0.0016908645629882812,
                0.9547704458236694,
                0.09105879068374634
            ]
        },
        {
            "mesh" : 3,
            "name" : "Plane.002",
            "rotation" : [
                -0.7071068286895752,
                0,
                0,
                0.7071068286895752
            ],
            "scale" : [
                0.11619207262992859,
                0.11652756482362747,
                0.11652756482362747
            ],
            "translation" : [
                -0.17489278316497803,
                0.9748933911323547,
                0.09105879068374634
            ]
        },
        {
            "mesh" : 4,
            "name" : "Plane.003",
            "rotation" : [
                -0.7071068286895752,
                0,
                0,
                0.7071068286895752
            ],
            "scale" : [
                0.16425220668315887,
                0.16520586609840393,
                0.16520586609840393
            ],
            "translation" : [
                -0.20360000431537628,
                0.9575710892677307,
                0.09105879068374634
            ]
        }
    ],
    "materials" : [
        {
            "doubleSided" : true,
            "name" : "Material.001",
            "pbrMetallicRoughness" : {
                "metallicFactor" : 0,
                "roughnessFactor" : 0.5
            }
        },
        {
            "doubleSided" : true,
            "name" : "Material.002",
            "pbrMetallicRoughness" : {
                "baseColorFactor" : [
                    0.2679882049560547,
                    0.2679882049560547,
                    0.2679882049560547,
                    1
                ],
                "metallicFactor" : 0,
                "roughnessFactor" : 0.5
            }
        },
        {
            "doubleSided" : true,
            "extensions" : {
                "KHR_materials_specular" : {
                    "specularColorFactor" : [
                        1.4335935131703126,
                        1.4335935131703126,
                        1.4335935131703126
                    ]
                },
                "KHR_materials_ior" : {
                    "ior" : 1.4500000476837158
                }
            },
            "name" : "Metal Bronze Dixon",
            "pbrMetallicRoughness" : {}
        },
        {
            "doubleSided" : true,
            "name" : "Material.003",
            "pbrMetallicRoughness" : {
                "baseColorTexture" : {
                    "index" : 0
                },
                "metallicFactor" : 0,
                "roughnessFactor" : 0.5
            }
        },
        {
            "doubleSided" : true,
            "name" : "Material.005",
            "pbrMetallicRoughness" : {
                "baseColorTexture" : {
                    "index" : 1
                },
                "metallicFactor" : 0,
                "roughnessFactor" : 0.5
            }
        },
        {
            "doubleSided" : true,
            "name" : "Material.004",
            "pbrMetallicRoughness" : {
                "baseColorTexture" : {
                    "index" : 2
                },
                "metallicFactor" : 0,
                "roughnessFactor" : 0.5
            }
        }
    ],
    "meshes" : [
        {
            "name" : "New Object",
            "primitives" : [
                {
                    "attributes" : {
                        "POSITION" : 0,
                        "NORMAL" : 1
                    },
                    "indices" : 2,
                    "material" : 0
                },
                {
                    "attributes" : {
                        "POSITION" : 3,
                        "NORMAL" : 4
                    },
                    "indices" : 5,
                    "material" : 1
                }
            ]
        },
        {
            "name" : "Cylinder",
            "primitives" : [
                {
                    "attributes" : {
                        "POSITION" : 6,
                        "TEXCOORD_0" : 7,
                        "TEXCOORD_1" : 8,
                        "NORMAL" : 9
                    },
                    "indices" : 10,
                    "material" : 2
                }
            ]
        },
        {
            "name" : "Plane.001",
            "primitives" : [
                {
                    "attributes" : {
                        "POSITION" : 11,
                        "TEXCOORD_0" : 12,
                        "NORMAL" : 13
                    },
                    "indices" : 14,
                    "material" : 3
                }
            ]
        },
        {
            "name" : "Plane.002",
            "primitives" : [
                {
                    "attributes" : {
                        "POSITION" : 15,
                        "TEXCOORD_0" : 16,
                        "NORMAL" : 17
                    },
                    "indices" : 18,
                    "material" : 4
                }
            ]
        },
        {
            "name" : "Plane.003",
            "primitives" : [
                {
                    "attributes" : {
                        "POSITION" : 19,
                        "TEXCOORD_0" : 20,
                        "NORMAL" : 21
                    },
                    "indices" : 22,
                    "material" : 5
                }
            ]
        }
    ],
    "textures" : [
        {
            "sampler" : 0,
            "source" : 0
        },
        {
            "sampler" : 0,
            "source" : 1
        },
        {
            "sampler" : 0,
            "source" : 2
        }
    ],
    "images" : [
        {
            "mimeType" : "image/png",
            "name" : "Logo_IT_Park_Uzbekistan.svg",
            "uri" : "Logo_IT_Park_Uzbekistan_svg.png"
        },
        {
            "mimeType" : "image/png",
            "name" : "2000px-NFC_logo.svg",
            "uri" : "2000px-NFC_logo_svg.png"
        },
        {
            "mimeType" : "image/png",
            "name" : "licensed-image",
            "uri" : "licensed-image.png"
        }
    ],
    "accessors" : [
        {
            "bufferView" : 0,
            "componentType" : 5126,
            "count" : 393276,
            "max" : [
                0.24040304124355316,
                1.5838459730148315,
                3.0771422386169434
            ],
            "min" : [
                -0.24065552651882172,
                0.2061014175415039,
                2.189035654067993
            ],
            "type" : "VEC3"
        },
        {
            "bufferView" : 1,
            "componentType" : 5126,
            "count" : 393276,
            "type" : "VEC3"
        },
        {
            "bufferView" : 2,
            "componentType" : 5125,
            "count" : 2347104,
            "type" : "SCALAR"
        },
        {
            "bufferView" : 3,
            "componentType" : 5126,
            "count" : 35904,
            "max" : [
                0.18384303152561188,
                1.5831938982009888,
                3.073011875152588
            ],
            "min" : [
                -0.18371132016181946,
                0.20677053928375244,
                2.189696788787842
            ],
            "type" : "VEC3"
        },
        {
            "bufferView" : 4,
            "componentType" : 5126,
            "count" : 35904,
            "type" : "VEC3"
        },
        {
            "bufferView" : 5,
            "componentType" : 5123,
            "count" : 202752,
            "type" : "SCALAR"
        },
        {
            "bufferView" : 6,
            "componentType" : 5126,
            "count" : 1475,
            "max" : [
                1,
                1,
                1
            ],
            "min" : [
                -1,
                -6.890105724334717,
                -1
            ],
            "type" : "VEC3"
        },
        {
            "bufferView" : 7,
            "componentType" : 5126,
            "count" : 1475,
            "type" : "VEC2"
        },
        {
            "bufferView" : 8,
            "componentType" : 5126,
            "count" : 1475,
            "type" : "VEC2"
        },
        {
            "bufferView" : 9,
            "componentType" : 5126,
            "count" : 1475,
            "type" : "VEC3"
        },
        {
            "bufferView" : 10,
            "componentType" : 5123,
            "count" : 4596,
            "type" : "SCALAR"
        },
        {
            "bufferView" : 11,
            "componentType" : 5126,
            "count" : 245,
            "max" : [
                1.1320514678955078,
                0.12642955780029297,
                1.223374366760254
            ],
            "min" : [
                0.15149766206741333,
                0.032779693603515625,
                -1.227097988128662
            ],
            "type" : "VEC3"
        },
        {
            "bufferView" : 12,
            "componentType" : 5126,
            "count" : 245,
            "type" : "VEC2"
        },
        {
            "bufferView" : 13,
            "componentType" : 5126,
            "count" : 245,
            "type" : "VEC3"
        },
        {
            "bufferView" : 14,
            "componentType" : 5123,
            "count" : 1152,
            "type" : "SCALAR"
        },
        {
            "bufferView" : 15,
            "componentType" : 5126,
            "count" : 105,
            "max" : [
                1.1311168670654297,
                0.1437053680419922,
                1.2227840423583984
            ],
            "min" : [
                0.1451641321182251,
                0.06465339660644531,
                0.20442962646484375
            ],
            "type" : "VEC3"
        },
        {
            "bufferView" : 16,
            "componentType" : 5126,
            "count" : 105,
            "type" : "VEC2"
        },
        {
            "bufferView" : 17,
            "componentType" : 5126,
            "count" : 105,
            "type" : "VEC3"
        },
        {
            "bufferView" : 18,
            "componentType" : 5123,
            "count" : 480,
            "type" : "SCALAR"
        },
        {
            "bufferView" : 19,
            "componentType" : 5126,
            "count" : 145,
            "max" : [
                1.119123101234436,
                0.1279754638671875,
                0.2057819366455078
            ],
            "min" : [
                0.14838969707489014,
                0.04252052307128906,
                -1.2222075462341309
            ],
            "type" : "VEC3"
        },
        {
            "bufferView" : 20,
            "componentType" : 5126,
            "count" : 145,
            "type" : "VEC2"
        },
        {
            "bufferView" : 21,
            "componentType" : 5126,
            "count" : 145,
            "type" : "VEC3"
        },
        {
            "bufferView" : 22,
            "componentType" : 5123,
            "count" : 672,
            "type" : "SCALAR"
        }
    ],
    "bufferViews" : [
        {
            "buffer" : 0,
            "byteLength" : 4719312,
            "byteOffset" : 0,
            "target" : 34962
        },
        {
            "buffer" : 0,
            "byteLength" : 4719312,
            "byteOffset" : 4719312,
            "target" : 34962
        },
        {
            "buffer" : 0,
            "byteLength" : 9388416,
            "byteOffset" : 9438624,
            "target" : 34963
        },
        {
            "buffer" : 0,
            "byteLength" : 430848,
            "byteOffset" : 18827040,
            "target" : 34962
        },
        {
            "buffer" : 0,
            "byteLength" : 430848,
            "byteOffset" : 19257888,
            "target" : 34962
        },
        {
            "buffer" : 0,
            "byteLength" : 405504,
            "byteOffset" : 19688736,
            "target" : 34963
        },
        {
            "buffer" : 0,
            "byteLength" : 17700,
            "byteOffset" : 20094240,
            "target" : 34962
        },
        {
            "buffer" : 0,
            "byteLength" : 11800,
            "byteOffset" : 20111940,
            "target" : 34962
        },
        {
            "buffer" : 0,
            "byteLength" : 11800,
            "byteOffset" : 20123740,
            "target" : 34962
        },
        {
            "buffer" : 0,
            "byteLength" : 17700,
            "byteOffset" : 20135540,
            "target" : 34962
        },
        {
            "buffer" : 0,
            "byteLength" : 9192,
            "byteOffset" : 20153240,
            "target" : 34963
        },
        {
            "buffer" : 0,
            "byteLength" : 2940,
            "byteOffset" : 20162432,
            "target" : 34962
        },
        {
            "buffer" : 0,
            "byteLength" : 1960,
            "byteOffset" : 20165372,
            "target" : 34962
        },
        {
            "buffer" : 0,
            "byteLength" : 2940,
            "byteOffset" : 20167332,
            "target" : 34962
        },
        {
            "buffer" : 0,
            "byteLength" : 2304,
            "byteOffset" : 20170272,
            "target" : 34963
        },
        {
            "buffer" : 0,
            "byteLength" : 1260,
            "byteOffset" : 20172576,
            "target" : 34962
        },
        {
            "buffer" : 0,
            "byteLength" : 840,
            "byteOffset" : 20173836,
            "target" : 34962
        },
        {
            "buffer" : 0,
            "byteLength" : 1260,
            "byteOffset" : 20174676,
            "target" : 34962
        },
        {
            "buffer" : 0,
            "byteLength" : 960,
            "byteOffset" : 20175936,
            "target" : 34963
        },
        {
            "buffer" : 0,
            "byteLength" : 1740,
            "byteOffset" : 20176896,
            "target" : 34962
        },
        {
            "buffer" : 0,
            "byteLength" : 1160,
            "byteOffset" : 20178636,
            "target" : 34962
        },
        {
            "buffer" : 0,
            "byteLength" : 1740,
            "byteOffset" : 20179796,
            "target" : 34962
        },
        {
            "buffer" : 0,
            "byteLength" : 1344,
            "byteOffset" : 20181536,
            "target" : 34963
        }
    ],
    "samplers" : [
        {
            "magFilter" : 9729,
            "minFilter" : 9987,
            "wrapS" : 33071,
            "wrapT" : 33071
        }
    ],
    "buffers" : [
        {
            "byteLength" : 20182880,
            "uri" : "untitled.bin"
        }
    ]
}
